# xmcd
#
# Track frame offsets:
#	182
#	12775
#	24180
#	36415
#	48390
#	58812
#	76365
#	91925
#	106047
#	117597
#	131730
#	147345
#	161175
#	173142
#
# Disc length: 2472 seconds
#
# Revision: 2
# Processed by: cddbd v1.5.1PL0 Copyright (c) Steve Scherf et al.
# Submitted via: audiograbber 1.83.01
#
DISCID=b809a60e
DTITLE=Mac and Katie Kissoon - Mac and Katie Kissoon - I´ve FoundMy Freedom
DYEAR=1900
DGENRE=Soul
TTITLE0=Chirpy Chirpy Cheep Cheep
TTITLE1=I´ve Found My Freedom
TTITLE2=Pidgeon
TTITLE3=Beautiful World Out There
TTITLE4=Black Skin Blue Eyed There
TTITLE5=Sing Along
TTITLE6=It´s A Hang Up World
TTITLE7=Song For Everybody
TTITLE8=Love Will Keep US Together
TTITLE9=Games People Play
TTITLE10=Medley - Get Down With It
TTITLE11=True Love Forgives
TTITLE12=Hey Diddle Diddle
TTITLE13=Say A Big Hello
EXTD=
EXTT0=
EXTT1=
EXTT2=
EXTT3=
EXTT4=
EXTT5=
EXTT6=
EXTT7=
EXTT8=
EXTT9=
EXTT10=
EXTT11=
EXTT12=
EXTT13=
PLAYORDER=
